#!OML:ASF C:\Vicon Data\Big\jianyuan-13\jianyuan\Session 1\Capture.male.ASF
:FULLY-SPECIFIED
:DEGREES
237
root -5.529656 17.358093 -9.588241 5.562115 9.153808 2.928929
lowerback -8.597708 -1.570304 -4.878105 
upperback 3.260317 -1.466840 -0.647725 
thorax 8.409475 -0.954473 1.823668 
lowerneck -6.445149 -2.028720 2.069038 
upperneck 0.366185 -2.801408 -2.676873 
head 1.131945 -1.443521 -1.264423 
rclavicle 0.000000 0.000000 
rhumerus -43.615175 -17.725007 -77.496578 
rradius 27.994314 
rwrist 30.577287 
rhand -16.957788 -16.049057 
rfingers 0.000000 
rthumb 9.276060 -45.824969 
lclavicle 0.000000 0.000000 
lhumerus -19.599875 13.098967 90.177020 
lradius 33.063165 
lwrist -37.940530 
lhand -17.909632 2.150366 
lfingers 0.000000 
lthumb 8.357519 31.964995 
rfemur -32.299677 4.487933 13.519076 
rtibia 23.922205 
rfoot -10.631817 -11.400063 
rtoes -32.175583 
lfemur 1.386952 -3.478127 -27.986628 
ltibia 12.984705 
lfoot -15.602250 2.346073 
ltoes -28.309422 
238
root -5.527799 17.352361 -9.535199 5.665856 9.205551 2.931339
lowerback -8.709959 -1.552225 -4.830029 
upperback 3.235356 -1.439258 -0.687070 
thorax 8.443097 -0.937363 1.757376 
lowerneck -6.464362 -2.059362 2.277752 
upperneck 0.414335 -2.855832 -2.760807 
head 1.146181 -1.471774 -1.329634 
rclavicle 0.000000 0.000000 
rhumerus -43.581328 -17.561895 -77.723855 
rradius 28.136843 
rwrist 30.391167 
rhand -16.910586 -16.093722 
rfingers 0.000000 
rthumb 9.321579 -45.867647 
lclavicle 0.000000 0.000000 
lhumerus -19.746287 12.379876 90.265563 
lradius 33.423690 
lwrist -37.397768 
lhand -17.927768 2.252074 
lfingers 0.000000 
lthumb 8.340039 32.067410 
rfemur -32.280138 4.696103 13.423066 
rtibia 23.512856 
rfoot -10.461857 -11.393415 
rtoes -32.628738 
lfemur 1.499386 -3.504748 -27.959407 
ltibia 12.934109 
lfoot -15.660714 2.309035 
ltoes -28.338470 
239
root -5.525429 17.348405 -9.480694 5.712681 9.242553 2.989511
lowerback -8.756412 -1.550433 -4.880260 
upperback 3.226869 -1.428416 -0.684009 
thorax 8.462022 -0.935040 1.789669 
lowerneck -6.443703 -2.082966 2.241852 
upperneck 0.405953 -2.885430 -2.711599 
head 1.139971 -1.485627 -1.308067 
rclavicle 0.000000 0.000000 
rhumerus -43.511546 -17.378911 -77.839622 
rradius 28.202153 
rwrist 30.201912 
rhand -16.834640 -16.059028 
rfingers 0.000000 
rthumb 9.394926 -45.829682 
lclavicle 0.000000 0.000000 
lhumerus -19.823602 11.969957 90.437631 
lradius 33.663032 
lwrist -37.051856 
lhand -18.057003 2.325592 
lfingers 0.000000 
lthumb 8.215316 32.145898 
rfemur -32.224121 4.869515 13.279128 
rtibia 23.201849 
rfoot -10.425577 -11.338555 
rtoes -32.985587 
lfemur 1.723982 -3.494464 -27.998645 
ltibia 12.822371 
lfoot -15.717293 2.258414 
ltoes -28.421482 
240
root -5.523495 17.345481 -9.427694 5.761544 9.343083 3.037904
lowerback -8.778419 -1.553438 -4.918282 
upperback 3.214001 -1.427265 -0.678851 
thorax 8.462260 -0.936436 1.816403 
lowerneck -6.452371 -2.131156 2.225154 
upperneck 0.436018 -2.948883 -2.674665 
head 1.149879 -1.516741 -1.295726 
rclavicle 0.000000 0.000000 
rhumerus -43.450795 -17.243494 -77.892334 
rradius 28.240560 
rwrist 30.348961 
rhand -16.618626 -16.029218 
rfingers 0.000000 
rthumb 9.603281 -45.790291 
lclavicle 0.000000 0.000000 
lhumerus -19.925290 11.587251 90.574336 
lradius 33.969552 
lwrist -36.627206 
lhand -17.987252 2.132702 
lfingers 0.000000 
lthumb 8.282642 31.950305 
rfemur -32.175283 4.974565 13.123479 
rtibia 22.924574 
rfoot -10.441865 -11.174322 
rtoes -33.007174 
lfemur 1.944597 -3.639630 -28.034479 
ltibia 12.699277 
lfoot -15.770062 2.328532 
ltoes -28.695152 
241
root -5.523865 17.340291 -9.373082 5.815759 9.412296 2.989492
lowerback -8.840428 -1.548476 -4.871892 
upperback 3.213466 -1.423900 -0.661411 
thorax 8.496507 -0.933444 1.808114 
lowerneck -6.523300 -2.167604 2.347673 
upperneck 0.495157 -3.005143 -2.764350 
head 1.177236 -1.546581 -1.349192 
rclavicle 0.000000 0.000000 
rhumerus -43.327430 -16.902304 -78.130834 
rradius 28.264805 
rwrist 30.186049 
rhand -16.723655 -16.083461 
rfingers 0.000000 
rthumb 9.502009 -45.849212 
lclavicle 0.000000 0.000000 
lhumerus -19.988021 11.171349 90.695211 
lradius 34.271662 
lwrist -36.320626 
lhand -18.032870 2.071381 
lfingers 0.000000 
lthumb 8.238587 31.890749 
rfemur -32.103196 5.179668 13.071345 
rtibia 22.639294 
rfoot -10.477764 -11.050796 
rtoes -32.659256 
lfemur 2.108691 -3.622977 -27.941909 
ltibia 12.632545 
lfoot -15.796821 2.279034 
ltoes -28.920957 
242
root -5.524123 17.334540 -9.317264 5.860484 9.467106 2.947451
lowerback -8.871712 -1.548670 -4.832833 
upperback 3.182261 -1.431247 -0.621251 
thorax 8.481150 -0.935380 1.827551 
lowerneck -6.547061 -2.187118 2.327884 
upperneck 0.571989 -3.028589 -2.772705 
head 1.205366 -1.558660 -1.350741 
rclavicle 0.000000 0.000000 
rhumerus -43.307127 -16.652332 -78.251771 
rradius 28.282369 
rwrist 30.195832 
rhand -16.804563 -16.083478 
rfingers 0.000000 
rthumb 9.423916 -45.852742 
lclavicle 0.000000 0.000000 
lhumerus -20.102813 10.736400 90.853147 
lradius 34.582414 
lwrist -35.885462 
lhand -18.089896 2.150464 
lfingers 0.000000 
lthumb 8.183601 31.972004 
rfemur -32.030347 5.476264 12.988811 
rtibia 22.404665 
rfoot -10.532652 -11.026640 
rtoes -32.559953 
lfemur 2.271880 -3.579174 -27.853655 
ltibia 12.597010 
lfoot -15.825673 2.206318 
ltoes -29.103358 
243
root -5.524515 17.329304 -9.264207 5.951056 9.547057 2.984869
lowerback -8.937269 -1.543119 -4.862196 
upperback 3.171876 -1.416619 -0.620152 
thorax 8.508086 -0.930141 1.846366 
lowerneck -6.548456 -2.212768 2.278122 
upperneck 0.549100 -3.061359 -2.685162 
head 1.198892 -1.573525 -1.314832 
rclavicle 0.000000 0.000000 
rhumerus -43.207543 -16.479665 -78.363468 
rradius 28.256861 
rwrist 30.191631 
rhand -16.835860 -15.912894 
rfingers 0.000000 
rthumb 9.393677 -45.683599 
lclavicle 0.000000 0.000000 
lhumerus -20.154901 10.288185 91.017010 
lradius 34.877279 
lwrist -35.489984 
lhand -18.224581 2.233541 
lfingers 0.000000 
lthumb 8.053628 32.060113 
rfemur -32.018189 5.426968 12.972527 
rtibia 22.247941 
rfoot -10.304001 -10.799493 
rtoes -33.309209 
lfemur 2.437103 -3.626408 -27.856156 
ltibia 12.475568 
lfoot -15.846636 2.228045 
ltoes -29.571256 
244
root -5.523144 17.323823 -9.211381 6.006079 9.644738 3.053280
lowerback -8.924080 -1.550279 -4.914589 
upperback 3.144816 -1.421035 -0.624098 
thorax 8.473003 -0.933856 1.871589 
lowerneck -6.651324 -2.250621 2.286608 
upperneck 0.685139 -3.112562 -2.668089 
head 1.258988 -1.599310 -1.316491 
rclavicle 0.000000 0.000000 
rhumerus -43.213090 -16.269046 -78.446626 
rradius 28.385975 
rwrist 30.234458 
rhand -16.654380 -15.893145 
rfingers 0.000000 
rthumb 9.568852 -45.655849 
lclavicle 0.000000 0.000000 
lhumerus -20.258485 9.915914 91.140034 
lradius 35.184323 
lwrist -35.248075 
lhand -18.284829 2.191003 
lfingers 0.000000 
lthumb 7.995433 32.019809 
rfemur -32.016528 5.584094 12.801891 
rtibia 22.206360 
rfoot -10.301161 -10.782090 
rtoes -33.190969 
lfemur 2.702556 -3.676484 -27.901899 
ltibia 12.259786 
lfoot -15.806591 2.265830 
ltoes -29.985899 
245
root -5.521939 17.318602 -9.157321 6.038610 9.758384 3.107279
lowerback -8.907608 -1.572322 -4.970272 
upperback 3.122627 -1.445980 -0.616398 
thorax 8.443270 -0.948244 1.907633 
lowerneck -6.683813 -2.282305 2.323081 
upperneck 0.760432 -3.157090 -2.669269 
head 1.287099 -1.621580 -1.326282 
rclavicle 0.000000 0.000000 
rhumerus -43.173819 -16.077656 -78.518389 
rradius 28.374015 
rwrist 30.266124 
rhand -16.610537 -15.760843 
rfingers 0.000000 
rthumb 9.611144 -45.521545 
lclavicle 0.000000 0.000000 
lhumerus -20.322980 9.602326 91.273740 
lradius 35.422604 
lwrist -34.885257 
lhand -18.294402 2.245250 
lfingers 0.000000 
lthumb 7.986189 32.074360 
rfemur -31.937228 5.628012 12.709933 
rtibia 22.162216 
rfoot -10.184336 -10.665632 
rtoes -33.067169 
lfemur 2.983901 -3.796956 -27.948190 
ltibia 12.062477 
lfoot -15.778821 2.389328 
ltoes -30.533902 
246
root -5.521564 17.315322 -9.103765 6.093137 9.918315 3.013890
lowerback -8.924532 -1.568394 -4.837865 
upperback 3.094768 -1.458776 -0.591914 
thorax 8.419919 -0.947314 1.857416 
lowerneck -6.677543 -2.320836 2.293314 
upperneck 0.771262 -3.208042 -2.582102 
head 1.289418 -1.645324 -1.294902 
rclavicle 0.000000 0.000000 
rhumerus -43.144174 -15.885212 -78.653219 
rradius 28.402534 
rwrist 30.129363 
rhand -16.616907 -15.759308 
rfingers 0.000000 
rthumb 9.605000 -45.520299 
lclavicle 0.000000 0.000000 
lhumerus -20.429224 9.146957 91.409691 
lradius 35.775680 
lwrist -34.307592 
lhand -18.253395 2.190791 
lfingers 0.000000 
lthumb 8.025764 32.018410 
rfemur -31.901511 5.799472 12.705578 
rtibia 22.125930 
rfoot -10.050319 -10.729602 
rtoes -32.985569 
lfemur 3.184643 -3.822755 -27.796661 
ltibia 11.899083 
lfoot -15.709888 2.365773 
ltoes -30.993927 
247
root -5.522953 17.311592 -9.047530 6.136299 10.041507 2.980708
lowerback -8.914280 -1.561451 -4.800844 
upperback 3.053851 -1.456656 -0.582133 
thorax 8.368376 -0.943025 1.848364 
lowerneck -6.731344 -2.367521 2.328688 
upperneck 0.880875 -3.273941 -2.527804 
head 1.332388 -1.677149 -1.288527 
rclavicle 0.000000 0.000000 
rhumerus -43.192168 -15.785758 -78.739000 
rradius 28.502344 
rwrist 30.003261 
rhand -16.521714 -15.848903 
rfingers 0.000000 
rthumb 9.696802 -45.605722 
lclavicle 0.000000 0.000000 
lhumerus -20.465423 8.958202 91.502435 
lradius 35.907998 
lwrist -34.165759 
lhand -18.302762 2.114892 
lfingers 0.000000 
lthumb 7.978168 31.944331 
rfemur -31.839932 5.976038 12.651609 
rtibia 22.106649 
rfoot -9.843922 -10.785945 
rtoes -32.522993 
lfemur 3.370068 -3.850836 -27.713860 
ltibia 11.829947 
lfoot -15.686880 2.323444 
ltoes -31.161325 
248
root -5.524069 17.305756 -8.989068 6.281501 10.079141 2.982127
lowerback -9.023926 -1.560375 -4.799641 
upperback 3.001924 -1.452594 -0.554275 
thorax 8.376352 -0.941053 1.876460 
lowerneck -6.746138 -2.405469 2.291931 
upperneck 0.915116 -3.322497 -2.486008 
head 1.345649 -1.700727 -1.271180 
rclavicle 0.000000 0.000000 
rhumerus -43.150020 -15.593423 -78.772699 
rradius 28.461750 
rwrist 30.089584 
rhand -16.576652 -15.664680 
rfingers 0.000000 
rthumb 9.643820 -45.423883 
lclavicle 0.000000 0.000000 
lhumerus -20.622754 8.448031 91.651712 
lradius 36.344862 
lwrist -33.588631 
lhand -18.305178 2.206048 
lfingers 0.000000 
lthumb 7.975794 32.035548 
rfemur -31.884216 5.897592 12.707702 
rtibia 22.178661 
rfoot -9.475941 -10.549345 
rtoes -32.482664 
lfemur 3.479750 -3.838036 -27.662189 
ltibia 11.733290 
lfoot -15.694801 2.270000 
ltoes -30.724909 
249
root -5.529348 17.301006 -8.926254 6.405104 10.081520 2.988542
lowerback -9.169738 -1.572699 -4.780300 
upperback 2.987355 -1.463480 -0.551557 
thorax 8.445668 -0.946318 1.863718 
lowerneck -6.808055 -2.418163 2.219030 
upperneck 0.944144 -3.336013 -2.419508 
head 1.367240 -1.706739 -1.239694 
rclavicle 0.000000 0.000000 
rhumerus -43.039988 -15.398534 -78.891958 
rradius 28.483704 
rwrist 30.083859 
rhand -16.465546 -15.858365 
rfingers 0.000000 
rthumb 9.751025 -45.612582 
lclavicle 0.000000 0.000000 
lhumerus -20.685306 8.150354 91.727974 
lradius 36.625759 
lwrist -33.404040 
lhand -18.402397 2.314974 
lfingers 0.000000 
lthumb 7.881930 32.148066 
rfemur -31.888305 5.854099 12.753612 
rtibia 22.282877 
rfoot -9.188680 -10.411078 
rtoes -32.010890 
lfemur 3.587591 -3.792996 -27.608914 
ltibia 11.710575 
lfoot -15.753919 2.208040 
ltoes -30.379081 
